<?xml version="1.0" encoding="utf-8"?>
<!-- Generator: Adobe Illustrator 16.0.0, SVG Export Plug-In . SVG Version: 6.00 Build 0)  -->
<!DOCTYPE svg PUBLIC "-//W3C//DTD SVG 1.1//EN" "http://www.w3.org/Graphics/SVG/1.1/DTD/svg11.dtd">
<svg version="1.1" id="Layer_1" xmlns="http://www.w3.org/2000/svg" xmlns:xlink="http://www.w3.org/1999/xlink" x="0px" y="0px"
	 width="1400px" height="980px" viewBox="0 0 1400 980" enable-background="new 0 0 1400 980" xml:space="preserve">
<rect x="-7.057" y="0.567" fill-rule="evenodd" clip-rule="evenodd" fill="#192139" width="1408.967" height="986.399"/>
<rect x="256.886" y="196.564" fill-rule="evenodd" clip-rule="evenodd" fill="#E8C487" width="290.216" height="336.026"/>
<path fill-rule="evenodd" clip-rule="evenodd" fill="#0F142B" d="M300.475,773.686h862.573c12.682,0,22.96,10.28,22.96,22.961
	c0,12.683-10.278,22.963-22.96,22.963h-61.756c24.038,0,43.525,19.486,43.525,43.524c0,13.11-5.804,24.856-14.972,32.837
	c-5.358,6.525-13.488,10.688-22.592,10.688h-5.962h-28.417H351.607c-16.137,0-29.219-13.081-29.219-29.217
	s13.082-29.218,29.219-29.218h25.178c-0.585,0-1.157-0.046-1.725-0.113c7.088-0.854,12.584-6.877,12.584-14.193
	c0-7.317-5.496-13.343-12.584-14.195c0.567-0.067,1.14-0.113,1.725-0.113h-76.311c-12.68,0-22.961-10.28-22.961-22.963
	C277.514,783.966,287.795,773.686,300.475,773.686z"/>
<g>
	<path fill-rule="evenodd" clip-rule="evenodd" fill="#3A5681" d="M321.149,567.762c0-2.689,2.181-4.869,4.87-4.869h22.448
		c2.691,0,4.872,2.18,4.872,4.869v22.45c0,2.689-2.181,4.869-4.872,4.869H326.02c-2.689,0-4.87-2.18-4.87-4.869V567.762z"/>
	<circle fill-rule="evenodd" clip-rule="evenodd" fill="#476594" cx="337.244" cy="578.986" r="8.658"/>
	<rect x="337.244" y="575.021" fill-rule="evenodd" clip-rule="evenodd" fill="#476594" width="20.647" height="6.854"/>
	<g>
		<path fill-rule="evenodd" clip-rule="evenodd" fill="#476594" d="M353.34,577.365h55.958c8.057,0,14.611,6.554,14.611,14.61
			v25.611h-2.166v-25.611c0-6.863-5.583-12.446-12.445-12.446H353.34V577.365z"/>
	</g>
</g>
<g>
	<g>
		<path fill-rule="evenodd" clip-rule="evenodd" fill="#252D4E" d="M450.529,797.92h-50.63c-9.679,0-17.597-7.916-17.597-17.595
			V611.725c0-9.677,7.918-17.595,17.597-17.595h50.63c9.677,0,17.596,7.918,17.596,17.595v168.601
			C468.125,790.004,460.206,797.92,450.529,797.92z"/>
		<rect x="395.219" y="796.563" fill-rule="evenodd" clip-rule="evenodd" fill="#252D4E" width="60.168" height="4.965"/>
		<rect x="389.656" y="611.466" fill-rule="evenodd" clip-rule="evenodd" fill="#354F7F" width="71.911" height="12.605"/>
		<rect x="389.656" y="629.881" fill-rule="evenodd" clip-rule="evenodd" fill="#354F7F" width="71.911" height="12.607"/>
		<rect x="389.656" y="648.299" fill-rule="evenodd" clip-rule="evenodd" fill="#354F7F" width="71.911" height="12.605"/>
		<circle fill-rule="evenodd" clip-rule="evenodd" fill="#3A5681" cx="425.612" cy="750.372" r="33.397"/>
		<path fill-rule="evenodd" clip-rule="evenodd" fill="#476594" d="M456.159,750.372c0,16.869-13.678,30.545-30.548,30.545
			s-30.546-13.676-30.546-30.545c0-16.873,13.676-30.55,30.546-30.55S456.159,733.499,456.159,750.372z"/>
		<circle fill-rule="evenodd" clip-rule="evenodd" fill="#476594" cx="425.612" cy="691.93" r="5.865"/>
	</g>
	<path fill-rule="evenodd" clip-rule="evenodd" fill="#3A5681" d="M447.529,725.182l-42.666,51.349
		c5.698,4.525,12.906,7.237,20.748,7.237c18.444,0,33.398-14.953,33.398-33.396C459.01,740.313,454.56,731.306,447.529,725.182z"/>
</g>
<path fill-rule="evenodd" clip-rule="evenodd" fill="#6D6E71" d="M780.319,616.85h-20.772
	c13.203-13.932,21.286-32.583,21.286-53.089v-62.52c0-43.112-35.679-78.063-79.691-78.063c-44.014,0-79.695,34.95-79.695,78.063
	v62.52c0,20.506,8.084,39.157,21.288,53.089h-3.059c-10.067,0-18.229,7.994-18.229,17.857c0,9.864,8.162,17.859,18.229,17.859
	h48.421v153.45c-20.182-0.385-38.58,1.342-45.52,12.119c-2.543,3.946-4.466,10.671,0.805,20.301l13.299-6.982
	c-1.372-2.508-1.884-4.586-1.343-5.433c0.24-0.37,2.721-3.643,16.414-4.838c5.3-0.462,11.044-0.503,16.345-0.396v15.045h21.69
	v-14.912c6.464-0.232,14.187-0.348,21.14,0.263c13.689,1.195,16.171,4.468,16.409,4.838c0.544,0.847,0.03,2.925-1.342,5.433
	l13.297,6.982c5.269-9.63,3.348-16.354,0.807-20.301c-7.487-11.624-28.3-12.719-50.311-11.993V652.566h70.532
	c10.068,0,18.229-7.995,18.229-17.859C798.548,624.844,790.388,616.85,780.319,616.85z"/>
<g>
	<path fill-rule="evenodd" clip-rule="evenodd" fill="#5F6060" d="M599.322,799.7c-14.098-0.402-21.146-0.604-21.146-0.604
		c-12.514-76.943,20.991-154.118,85.75-197.514c14.497,19.45,21.745,29.175,21.745,29.175
		C624.711,663.787,590.386,730.945,599.322,799.7z"/>
	<path fill-rule="evenodd" clip-rule="evenodd" fill="#4F4E4E" d="M599.322,799.7c-14.098-0.402-21.146-0.604-21.146-0.604
		c-4.098-25.192-3.26-50.409,1.992-74.458c1.085,10.502,6.602,18.609,14.09,19.458c2.581,0.293,5.126-0.309,7.494-1.631
		C597.731,760.925,596.794,780.248,599.322,799.7z"/>
	<path fill-rule="evenodd" clip-rule="evenodd" fill="#5F6060" d="M735.189,546.693l2.626,45.38
		c1.216,21.004-13.368,39.763-34.306,41.832c-20.938,2.069-40.617-13.302-41.832-34.306l-2.625-45.381
		c-1.215-21.004,13.367-39.761,34.306-41.83C714.297,510.318,733.975,525.689,735.189,546.693z"/>
	<path fill-rule="evenodd" clip-rule="evenodd" fill="#A7A9AC" d="M721.503,440.813l-38.024,6.588
		c-4.325,0.749-8.54-1.921-9.419-6.222c-0.879-4.301,1.896-8.669,6.223-9.418l38.025-6.588c4.325-0.75,8.539,1.921,9.418,6.222
		C728.604,435.696,725.828,440.064,721.503,440.813z"/>
	<g>
		<path fill-rule="evenodd" clip-rule="evenodd" fill="#E6B07D" d="M815.987,548.263l5.631-1.634l17.674-16.107
			c0,0,3.242,7.602-0.781,11.205c-2.303,3.16-2.303,3.16-2.303,3.16l16.388,8.799c0,0,7.763,7.354,6.432,7.879
			c-1.332,0.527-25.602,3.846-31.287,3.844c-3.023-1.055-5.238-9.654-5.238-9.654l-8.099-0.114l0.862-5.907L815.987,548.263z"/>
	</g>
	<g>
		<path fill-rule="evenodd" clip-rule="evenodd" fill="#FBFDFF" d="M769.555,466.469l12.215,81.746l36.645-3.76l2.818,15.975
			c0,0-46.979,10.336-55.436,10.336c-7.518-15.975-26.31-77.988-26.31-77.988L769.555,466.469z"/>
	</g>
	<g>
		<path fill-rule="evenodd" clip-rule="evenodd" fill="#E58A75" d="M606.719,543.318l-5.619-1.672l-17.563-16.229
			c0,0-3.295,7.578,0.704,11.21c2.281,3.177,2.281,3.177,2.281,3.177l-16.448,8.686c0,0-7.813,7.299-6.485,7.835
			s25.574,4.021,31.26,4.058c3.029-1.034,5.305-9.617,5.305-9.617l8.099-0.059l-0.821-5.914L606.719,543.318z"/>
	</g>
	<path fill-rule="evenodd" clip-rule="evenodd" fill="#FBFDFF" d="M654.168,458.412l-13.231,85.094l-36.618-4.01l-2.929,15.953
		c0,0,46.908,10.658,55.364,10.717c7.626-15.922,26.845-77.804,26.845-77.804L654.168,458.412z"/>
	<path fill-rule="evenodd" clip-rule="evenodd" fill="#FBFDFF" d="M720.782,435.388c0,0,42.026,17.192,49.668,29.61
		c0.955,7.64-18.147,30.564-18.147,30.564s-15.282,82.141-15.282,106.02c0,0-42.026,7.642-73.546,0.956
		c-6.687-40.116-6.687-112.707-5.731-132.765c-1.91-3.82-3.82-12.417-3.82-12.417l32.475-19.103L720.782,435.388z"/>
	<g>
		<path fill-rule="evenodd" clip-rule="evenodd" fill="#E58A75" d="M716.007,402.752c0,0-1.768,19.449-0.589,27.699
			c-0.59,0-16.502,21.216-27.11,12.966c0.59-3.536,0.59-20.627,0.59-20.627L716.007,402.752z"/>
	</g>
	<path fill-rule="evenodd" clip-rule="evenodd" fill="#79383D" d="M690.265,291.447c0,0-17.834,4.313-21.391,15.303
		c-3.559,10.99-2.719,43.015-2.719,43.015S702.972,311.624,690.265,291.447z"/>
	<g>
		<path fill-rule="evenodd" clip-rule="evenodd" fill="#F79E8C" d="M739.942,401.67c-26.854,26.983-62.25,21.5-76.002,10.324
			c-13.753-11.177-22.127-37.236-10.951-50.989c11.178-13.753,15.342-26.04,21.851-46.721c6.508-20.681,29.449-25.769,29.449-25.769
			s42.071-8.793,65.496,29.049S739.942,401.67,739.942,401.67z"/>
	</g>
	<g>
		<path fill-rule="evenodd" clip-rule="evenodd" fill="#E58A75" d="M744.106,389.383c0,0,25.285-13.481,21.895,3.914
			C762.611,410.69,717.944,418.271,744.106,389.383z"/>
	</g>
	<g>
		<path fill-rule="evenodd" clip-rule="evenodd" fill="#E58A75" d="M750.753,341.351c0,0-6.082,28.789-11.747,40.901
			c-5.665,12.113-22.129,36.046-61.537,32.378c-12.978-6.069-26.18-20.679-26.18-20.679s3.448,17.429,22.021,25.061
			c18.574,7.631,46.273,4.77,65.445-13.68c15.363-17.067,33.684-51.731,33.684-51.731L750.753,341.351z"/>
	</g>
	<path fill-rule="evenodd" clip-rule="evenodd" fill="#79383D" d="M759.007,330.521c0,0,12.245,2.563,7.432,14.547
		c-5.159,11.032-10.653,9.252-13.637,5.485c-2.983-3.768-20.013-29.92-11.231-25.023S759.007,330.521,759.007,330.521z"/>
	<path fill-rule="evenodd" clip-rule="evenodd" fill="#FEC663" d="M691.89,462.132c0,0,1.434,70.919,8.597,111.035l-10.745,13.61
		l-13.611-19.342l11.463-108.885L691.89,462.132z"/>
	<g>
		<path fill-rule="evenodd" clip-rule="evenodd" fill="#AE9D8D" d="M737.414,592.051c-2.903-0.969-52.269,7.743-76.468-1.937
			l0.968,12.584c0,0,23.714,15.487,75.983-1.937L737.414,592.051z"/>
	</g>
	<polygon fill-rule="evenodd" clip-rule="evenodd" fill="#5F6060" points="718.539,593.744 717.813,608.264 724.347,606.086 
		724.347,592.292 	"/>
	<polygon fill-rule="evenodd" clip-rule="evenodd" fill="#5F6060" points="667.723,592.292 668.448,607.537 676.434,609.716 
		674.256,593.744 	"/>
	
		<ellipse transform="matrix(0.5178 -0.8555 0.8555 0.5178 10.8835 747.3226)" fill-rule="evenodd" clip-rule="evenodd" fill="#9C5957" cx="668.367" cy="364.007" rx="3.202" ry="6.291"/>
	<path fill-rule="evenodd" clip-rule="evenodd" fill="#79383D" d="M703.175,256.843l78.227,36.584
		c11.899,5.565,17.082,19.854,11.518,31.753c-5.565,11.9-19.854,17.083-31.754,11.518l-78.227-36.584
		c-11.899-5.564-17.083-19.854-11.518-31.753S691.275,251.278,703.175,256.843z"/>
	<g>
		<path fill-rule="evenodd" clip-rule="evenodd" fill="#945448" d="M704.779,263.24c0,0-23.304-8.79-30.126,8.054
			c-2.498,18.867,76.18,53.552,78.203,49.226c2.022-4.326-28.707-35.568-24.842-34.814c3.866,0.753,29.697,24.432,35.224,39.67
			C763.476,318.105,752.771,284.629,704.779,263.24z"/>
	</g>
	<path fill-rule="evenodd" clip-rule="evenodd" fill="#79383D" d="M791.889,328.521l-23.612,50.49
		c-3.592,7.68-12.814,11.025-20.495,7.434s-11.024-12.815-7.434-20.495l23.612-50.49c3.592-7.681,12.814-11.025,20.495-7.434
		S795.48,320.841,791.889,328.521z"/>
	<path fill-rule="evenodd" clip-rule="evenodd" fill="#945448" d="M764.543,365.667c0,0,4.74,11.578-7.882,14.308
		c-12.027,1.911-13.634-3.637-12.186-8.219c1.448-4.582,13.563-33.344,14.429-23.327
		C759.77,358.446,764.543,365.667,764.543,365.667z"/>
	<path fill-rule="evenodd" clip-rule="evenodd" fill="#9C5957" d="M676.369,400.514l-22.641-13.508
		c-3.444-2.055-4.58-6.554-2.525-9.998s6.554-4.58,9.997-2.525l22.641,13.508c3.443,2.055,4.58,6.554,2.525,9.998
		S679.813,402.569,676.369,400.514z"/>
	<path fill-rule="evenodd" clip-rule="evenodd" fill="#E6E7E8" d="M656.148,373.795l-2.075,3.407l0.754,0.593l-4.46,2.745
		c-0.13,2.612,1.148,5.217,3.54,6.644l22.64,13.508c2.106,1.257,4.606,1.32,6.701,0.392l1.266-3.246l0.916,0.754l1.434-1.021
		c1.599-3.351,0.403-7.463-2.844-9.401l-22.641-13.509C659.748,373.688,657.881,373.431,656.148,373.795z"/>
	<path fill-rule="evenodd" clip-rule="evenodd" fill="#79383D" d="M704.052,361.9c1.372,0,2.491-1.119,2.491-2.492
		c0-1.373-1.119-2.492-2.491-2.492c-1.373,0-2.493,1.12-2.493,2.492C701.559,360.781,702.679,361.9,704.052,361.9z"/>
	<path fill-rule="evenodd" clip-rule="evenodd" fill="none" stroke="#79383D" stroke-width="1.4998" stroke-miterlimit="2.6131" d="
		M704.052,364.393c2.745,0,4.984-2.239,4.984-4.985s-2.239-4.985-4.984-4.985c-2.746,0-4.985,2.239-4.985,4.985
		S701.306,364.393,704.052,364.393"/>
	<path fill-rule="evenodd" clip-rule="evenodd" fill="none" stroke="#79383D" stroke-width="1.4998" stroke-miterlimit="2.6131" d="
		M704.052,368.018c4.741,0,8.609-3.868,8.609-8.61s-3.868-8.61-8.609-8.61c-4.742,0-8.61,3.868-8.61,8.61
		S699.31,368.018,704.052,368.018"/>
	<path fill-rule="evenodd" clip-rule="evenodd" fill="#79383D" d="M672.635,348.004c1.373,0,2.492-1.12,2.492-2.492
		c0-1.373-1.119-2.493-2.492-2.493s-2.492,1.12-2.492,2.493C670.143,346.885,671.262,348.004,672.635,348.004z"/>
	<path fill-rule="evenodd" clip-rule="evenodd" fill="none" stroke="#79383D" stroke-width="1.4998" stroke-miterlimit="2.6131" d="
		M672.635,350.497c2.746,0,4.985-2.239,4.985-4.985c0-2.745-2.239-4.984-4.985-4.984c-2.745,0-4.984,2.239-4.984,4.984
		C667.65,348.258,669.89,350.497,672.635,350.497"/>
	<path fill-rule="evenodd" clip-rule="evenodd" fill="none" stroke="#79383D" stroke-width="1.4998" stroke-miterlimit="2.6131" d="
		M672.635,354.123c4.742,0,8.61-3.868,8.61-8.61c0-4.742-3.868-8.61-8.61-8.61s-8.609,3.868-8.609,8.61
		C664.025,350.254,667.893,354.123,672.635,354.123"/>
	<path fill-rule="evenodd" clip-rule="evenodd" fill="#79383D" d="M718.451,349.025l-6.525-7.656
		c-0.993-1.165-0.853-2.929,0.312-3.922c1.165-0.993,2.93-0.852,3.923,0.312l6.525,7.656c0.993,1.165,0.853,2.93-0.313,3.922
		C721.209,350.331,719.443,350.19,718.451,349.025z"/>
	<path fill-rule="evenodd" clip-rule="evenodd" fill="#79383D" d="M672.606,324.647l10.06,0.065c1.53,0.01,2.773,1.271,2.764,2.8
		c-0.01,1.53-1.27,2.774-2.8,2.764l-10.06-0.065c-1.529-0.01-2.773-1.27-2.764-2.8S671.076,324.637,672.606,324.647z"/>
	<path fill-rule="evenodd" clip-rule="evenodd" fill="#FEC663" d="M690.683,463.174c3.535,0,6.42-3.02,6.42-6.722
		c0-3.702-2.885-6.721-6.42-6.721s-6.419,3.02-6.419,6.721C684.264,460.155,687.147,463.174,690.683,463.174z"/>
	<path opacity="0.38" fill-rule="evenodd" clip-rule="evenodd" d="M720.782,435.388c0,0,2.713,1.11,6.882,2.968
		c-0.423,1.575-1.326,3.034-2.685,4.13l-21.288,17.171c-3.417,2.756-8.468,2.216-11.224-1.201c-0.871-1.08-1.413-2.323-1.639-3.605
		c-0.843,1.145-2,2.079-3.407,2.65c-4.067,1.651-8.747-0.327-10.397-4.395l-1.978-4.872c-0.393-0.969-0.58-1.973-0.582-2.961
		l11.884-6.99c1.527,0.855,2.785,2.211,3.49,3.948l1.978,4.872c0.211,0.52,0.362,1.049,0.458,1.582
		c0.393-0.53,0.858-1.02,1.395-1.452l13.251-10.689L720.782,435.388z"/>
	<path fill-rule="evenodd" clip-rule="evenodd" fill="#D1D3D4" d="M724.979,439.465l-21.288,17.172
		c-3.417,2.756-8.468,2.216-11.224-1.201c-2.757-3.417-2.216-8.468,1.201-11.224l21.288-17.172
		c3.416-2.756,8.467-2.216,11.224,1.201C728.937,431.658,728.396,436.709,724.979,439.465z"/>
	<path fill-rule="evenodd" clip-rule="evenodd" fill="#D1D3D4" d="M674.257,442.638l2.768,7.448
		c1.529,4.115,6.33,6.045,10.397,4.395c4.068-1.651,5.924-6.283,4.395-10.398l-2.768-7.447c-1.529-4.115-6.33-6.045-10.397-4.395
		C674.583,433.891,672.728,438.524,674.257,442.638z"/>
	<path fill-rule="evenodd" clip-rule="evenodd" fill="#5F6060" d="M801.624,799.7c14.098-0.402,21.146-0.604,21.146-0.604
		c12.514-76.943-20.992-154.118-85.75-197.514c-14.497,19.45-21.745,29.175-21.745,29.175
		C776.234,663.787,810.56,730.945,801.624,799.7z"/>
	<path fill-rule="evenodd" clip-rule="evenodd" fill="#201422" d="M802.171,804.227h19.787l24.844,13.771h-0.001
		c1.014,0.563,1.703,1.644,1.703,2.878v0.001c0,1.809-1.479,3.287-3.287,3.287h-5.131h-18.128h-19.787V804.227z"/>
	<path fill-rule="evenodd" clip-rule="evenodd" fill="#201422" d="M599.3,804.227h-19.787l-24.843,13.771l0,0
		c-1.014,0.563-1.703,1.644-1.703,2.878v0.001c0,1.809,1.479,3.287,3.287,3.287h5.131h18.128H599.3V804.227z"/>
	<path fill-rule="evenodd" clip-rule="evenodd" fill="#4F4E4E" d="M801.624,799.7c14.098-0.402,21.146-0.604,21.146-0.604
		c4.097-25.192,3.26-50.409-1.992-74.458c-1.085,10.502-6.602,18.609-14.09,19.458c-2.581,0.293-5.126-0.309-7.494-1.631
		C803.215,760.925,804.152,780.248,801.624,799.7z"/>
	<g>
		<path fill-rule="evenodd" clip-rule="evenodd" d="M812.505,318.642c1.549,13.219-9.091,11.3-19.422,9.768
			c-40.134-15.687-67.416-42.563-94.472-75.286c-11.112-14.681-19.671-26.838-20.233-45.703c3.42-11.019,18.744-4.677,26.438-2.059
			c1.545,0.586,3.271-0.191,3.857-1.736c0.586-1.545-0.191-3.272-1.736-3.858l-6.64-2.259c-38.792-11.364-29.9,23.686-16.025,45.835
			c20.832,33.255,64.188,73.142,100.807,88.369c14.688,6.108,35.81,7.233,33.331-14.029c-0.265-1.631-1.801-2.739-3.432-2.474
			S812.24,317.011,812.505,318.642z"/>
		<path fill-rule="evenodd" clip-rule="evenodd" d="M714.037,210.061c15.681,8.592,24.441,14.862,37.989,25.844
			c1.272,1.053,3.158,0.875,4.212-0.397c1.053-1.272,0.875-3.158-0.398-4.211c-13.966-11.321-22.957-17.727-39.133-26.588
			c-1.478-0.737-3.273-0.137-4.012,1.341C711.958,207.527,712.559,209.324,714.037,210.061z"/>
		<path fill-rule="evenodd" clip-rule="evenodd" d="M762.058,244.926c8.573,7.819,4.422,3.812,12.463,12.016
			c1.099,1.233,2.989,1.343,4.223,0.244c1.234-1.099,1.344-2.989,0.244-4.223c-8.433-8.608-4.122-4.451-12.925-12.48
			c-1.228-1.106-3.118-1.008-4.225,0.219C760.732,241.928,760.83,243.82,762.058,244.926z"/>
		<path fill-rule="evenodd" clip-rule="evenodd" d="M813.561,301.476c-4.894-11.246-7.425-16.028-14.358-26.149
			c-0.979-1.33-2.853-1.614-4.182-0.634c-1.331,0.98-1.614,2.852-0.635,4.182c6.582,9.607,8.977,14.153,13.623,24.829
			c0.615,1.533,2.357,2.277,3.891,1.662S814.177,303.009,813.561,301.476z"/>
	</g>
	<g>
		<path fill-rule="evenodd" clip-rule="evenodd" fill="#E8C487" d="M812.505,318.642c1.549,13.219-9.091,11.3-19.422,9.768
			c-40.134-15.687-67.416-42.563-94.472-75.286c-11.112-14.681-19.671-26.838-20.233-45.703c3.42-11.019,18.744-4.677,26.438-2.059
			c1.545,0.586,3.271-0.191,3.857-1.736c0.586-1.545-0.191-3.272-1.736-3.858l-6.64-2.259c-38.792-11.364-29.9,23.686-16.025,45.835
			c20.832,33.255,64.188,73.142,100.807,88.369c14.688,6.108,35.81,7.233,33.331-14.029c-0.265-1.631-1.801-2.739-3.432-2.474
			S812.24,317.011,812.505,318.642z"/>
		<path fill-rule="evenodd" clip-rule="evenodd" fill="#E8C487" d="M714.037,210.061c15.681,8.592,24.441,14.862,37.989,25.844
			c1.272,1.053,3.158,0.875,4.212-0.397c1.053-1.272,0.875-3.158-0.398-4.211c-13.966-11.321-22.957-17.727-39.133-26.588
			c-1.478-0.737-3.273-0.137-4.012,1.341C711.958,207.527,712.559,209.324,714.037,210.061z"/>
		<path fill-rule="evenodd" clip-rule="evenodd" fill="#E8C487" d="M762.058,244.926c8.573,7.819,4.422,3.812,12.463,12.016
			c1.099,1.233,2.989,1.343,4.223,0.244c1.234-1.099,1.344-2.989,0.244-4.223c-8.433-8.608-4.122-4.451-12.925-12.48
			c-1.228-1.106-3.118-1.008-4.225,0.219C760.732,241.928,760.83,243.82,762.058,244.926z"/>
		<path fill-rule="evenodd" clip-rule="evenodd" fill="#E8C487" d="M813.561,301.476c-4.894-11.246-7.425-16.028-14.358-26.149
			c-0.979-1.33-2.853-1.614-4.182-0.634c-1.331,0.98-1.614,2.852-0.635,4.182c6.582,9.607,8.977,14.153,13.623,24.829
			c0.615,1.533,2.357,2.277,3.891,1.662S814.177,303.009,813.561,301.476z"/>
	</g>
	<g>
		<path fill-rule="evenodd" clip-rule="evenodd" fill="#E8C487" d="M636.907,283.417c-7.252,11.161,3.135,14.159,13.074,17.368
			c42.929,3.74,79.301-8.249,118.063-25.578c16.471-8.229,29.533-15.331,38.404-31.989c1.82-11.392-14.726-12.505-22.784-13.571
			c-1.644-0.16-2.848-1.623-2.688-3.267c0.16-1.645,1.623-2.848,3.268-2.688l6.953,0.92c39.808,7.02,16.294,34.49-5.965,48.188
			c-33.421,20.566-89.969,37.087-129.543,34.494c-15.873-1.04-35.303-9.399-23.651-27.356c0.961-1.344,2.829-1.655,4.173-0.695
			C637.556,280.205,637.867,282.073,636.907,283.417z"/>
		<path fill-rule="evenodd" clip-rule="evenodd" fill="#E8C487" d="M773.316,229.77c-17.865,0.746-28.498,2.481-45.512,6.315
			c-1.607,0.379-3.219-0.617-3.599-2.225c-0.379-1.607,0.617-3.218,2.225-3.598c17.538-3.953,28.438-5.707,46.865-6.475
			c1.652-0.006,2.996,1.329,3.002,2.981C776.303,228.421,774.968,229.765,773.316,229.77z"/>
		<path fill-rule="evenodd" clip-rule="evenodd" fill="#E8C487" d="M714.813,239.721c-11.151,3.206-5.653,1.456-16.498,5.242
			c-1.532,0.618-3.275-0.123-3.894-1.654c-0.618-1.532,0.122-3.275,1.653-3.894c11.377-3.976,5.669-2.162,17.12-5.454
			c1.59-0.447,3.242,0.479,3.688,2.07C717.331,237.623,716.404,239.274,714.813,239.721z"/>
		<path fill-rule="evenodd" clip-rule="evenodd" fill="#E8C487" d="M643.573,267.563c9.374-7.909,13.763-11.073,24.466-17.069
			c1.469-0.757,3.272-0.181,4.03,1.287c0.757,1.468,0.181,3.272-1.287,4.03c-10.159,5.691-14.322,8.703-23.222,16.211
			c-1.231,1.101-3.122,0.996-4.224-0.235C642.236,270.556,642.342,268.665,643.573,267.563z"/>
	</g>
</g>
<rect x="500.7" y="615.222" fill-rule="evenodd" clip-rule="evenodd" fill="#252D4E" width="458.146" height="221.615"/>
<g>
	<g>
		<polygon fill-rule="evenodd" clip-rule="evenodd" fill="#476595" points="565.189,189.072 487.992,189.072 315.169,189.072 
			237.972,189.072 233.032,219.527 320.106,219.527 483.055,219.527 570.127,219.527 		"/>
		<polygon fill-rule="evenodd" clip-rule="evenodd" fill="#0F142B" points="565.189,223.857 487.992,223.857 315.169,223.857 
			237.972,223.857 233.032,219.527 320.106,219.527 483.055,219.527 570.127,219.527 		"/>
	</g>
	<g>
		<polygon fill-rule="evenodd" clip-rule="evenodd" fill="#476595" points="565.189,223.857 487.992,223.857 315.169,223.857 
			237.972,223.857 233.032,254.311 320.106,254.311 483.055,254.311 570.127,254.311 		"/>
		<polygon fill-rule="evenodd" clip-rule="evenodd" fill="#0F142B" points="565.189,258.641 487.992,258.641 315.169,258.641 
			237.972,258.641 233.032,254.311 320.106,254.311 483.055,254.311 570.127,254.311 		"/>
	</g>
	<g>
		<polygon fill-rule="evenodd" clip-rule="evenodd" fill="#476595" points="565.189,258.641 487.992,258.641 315.169,258.641 
			237.972,258.641 233.032,289.097 320.106,289.097 483.055,289.097 570.127,289.097 		"/>
		<polygon fill-rule="evenodd" clip-rule="evenodd" fill="#0F142B" points="565.189,293.427 487.992,293.427 315.169,293.427 
			237.972,293.427 233.032,289.097 320.106,289.097 483.055,289.097 570.127,289.097 		"/>
	</g>
	<g>
		<polygon fill-rule="evenodd" clip-rule="evenodd" fill="#476595" points="565.189,293.427 487.992,293.427 315.169,293.427 
			237.972,293.427 233.032,323.882 320.106,323.882 483.055,323.882 570.127,323.882 		"/>
		<polygon fill-rule="evenodd" clip-rule="evenodd" fill="#0F142B" points="565.189,328.213 487.992,328.213 315.169,328.213 
			237.972,328.213 233.032,323.882 320.106,323.882 483.055,323.882 570.127,323.882 		"/>
	</g>
	<g>
		<polygon fill-rule="evenodd" clip-rule="evenodd" fill="#476595" points="565.189,328.213 487.992,328.213 315.169,328.213 
			237.972,328.213 233.032,358.667 320.106,358.667 483.055,358.667 570.127,358.667 		"/>
		<polygon fill-rule="evenodd" clip-rule="evenodd" fill="#0F142B" points="565.189,362.997 487.992,362.997 315.169,362.997 
			237.972,362.997 233.032,358.667 320.106,358.667 483.055,358.667 570.127,358.667 		"/>
	</g>
	<g>
		<polygon fill-rule="evenodd" clip-rule="evenodd" fill="#476595" points="565.189,362.997 487.992,362.997 315.169,362.997 
			237.972,362.997 233.032,393.452 320.106,393.452 483.055,393.452 570.127,393.452 		"/>
		<polygon fill-rule="evenodd" clip-rule="evenodd" fill="#0F142B" points="565.189,397.782 487.992,397.782 315.169,397.782 
			237.972,397.782 233.032,393.452 320.106,393.452 483.055,393.452 570.127,393.452 		"/>
	</g>
	<g>
		<polygon fill-rule="evenodd" clip-rule="evenodd" fill="#476595" points="564.135,397.782 486.938,397.782 314.115,397.782 
			236.918,397.782 231.979,428.237 319.052,428.237 482,428.237 569.074,428.237 		"/>
		<polygon fill-rule="evenodd" clip-rule="evenodd" fill="#0F142B" points="564.135,432.567 486.938,432.567 314.115,432.567 
			236.918,432.567 231.979,428.237 319.052,428.237 482,428.237 569.074,428.237 		"/>
	</g>
	<rect x="226.896" y="160.395" opacity="0.1" fill-rule="evenodd" clip-rule="evenodd" width="349.369" height="41.028"/>
	<rect x="226.896" y="155.535" fill-rule="evenodd" clip-rule="evenodd" fill="#0F142B" width="349.369" height="41.03"/>
	<rect x="288.326" y="203.971" fill-rule="evenodd" clip-rule="evenodd" fill="#0F142B" width="4.269" height="228.596"/>
	<rect x="510.566" y="198.188" fill-rule="evenodd" clip-rule="evenodd" fill="#0F142B" width="4.269" height="228.596"/>
	<path fill-rule="evenodd" clip-rule="evenodd" fill="#0F142B" d="M256.886,443.521V191.523h-5.674v252.074
		c-2.731,1.15-4.648,3.849-4.648,6.998v21.519c0,4.192,3.397,7.588,7.59,7.588c4.19,0,7.588-3.396,7.588-7.588v-21.519
		C261.741,447.367,259.725,444.619,256.886,443.521z"/>
</g>
<g>
	<g>
		<g>
			<path fill-rule="evenodd" clip-rule="evenodd" fill="#466598" d="M1025.374,534.539h-71.893c-1.159,0-2.287,0.092-3.404,0.221
				v40.039c1.117,0.133,2.245,0.221,3.404,0.221h71.893c13.465,0,24.382-9.063,24.382-20.24S1038.839,534.539,1025.374,534.539z"/>
			<path fill-rule="evenodd" clip-rule="evenodd" fill="#29365A" d="M1025.837,543.422h-75.76v22.32h75.76
				c6.703,0,12.127-4.994,12.127-11.16C1037.964,548.42,1032.54,543.422,1025.837,543.422z"/>
		</g>
		<g>
			<path fill-rule="evenodd" clip-rule="evenodd" fill="#466598" d="M1025.374,494.057h-71.893c-1.159,0-2.287,0.092-3.404,0.221
				v40.041c1.117,0.129,2.245,0.221,3.404,0.221h71.893c13.465,0,24.382-9.063,24.382-20.24
				C1049.756,503.116,1038.839,494.057,1025.374,494.057z"/>
			<path fill-rule="evenodd" clip-rule="evenodd" fill="#29365A" d="M1025.837,502.942h-75.76v22.32h75.76
				c6.703,0,12.127-4.999,12.127-11.16C1037.964,507.94,1032.54,502.942,1025.837,502.942z"/>
		</g>
		<g>
			<path fill-rule="evenodd" clip-rule="evenodd" fill="#466598" d="M977.794,453.577h71.891c1.157,0,2.289,0.09,3.401,0.218v40.042
				c-1.112,0.133-2.244,0.22-3.401,0.22h-71.891c-13.469,0-24.382-9.062-24.382-20.24
				C953.412,462.639,964.325,453.577,977.794,453.577z"/>
			<path fill-rule="evenodd" clip-rule="evenodd" fill="#29365A" d="M977.326,462.463h75.76v22.316h-75.76
				c-6.697,0-12.129-4.996-12.129-11.16C965.197,467.458,970.629,462.463,977.326,462.463z"/>
		</g>
	</g>
	<g>
		<g>
			<path fill-rule="evenodd" clip-rule="evenodd" fill="#466598" d="M1021.622,412.835h-71.893c-1.16,0-2.287,0.089-3.404,0.22
				v40.04c1.117,0.131,2.244,0.22,3.404,0.22h71.893c13.465,0,24.382-9.062,24.382-20.24
				C1046.004,421.897,1035.087,412.835,1021.622,412.835z"/>
			<path fill-rule="evenodd" clip-rule="evenodd" fill="#29365A" d="M1022.085,421.718h-75.76v22.32h75.76
				c6.703,0,12.127-4.996,12.127-11.16C1034.212,426.716,1028.788,421.718,1022.085,421.718z"/>
		</g>
	</g>
</g>
<path fill-rule="evenodd" clip-rule="evenodd" fill="#F2F9FA" d="M645.141,321.402c3.053,0,5.543-2.49,5.543-5.543
	s-2.49-5.543-5.543-5.543c-3.054,0-5.544,2.49-5.544,5.543S642.087,321.402,645.141,321.402z"/>
<path fill-rule="evenodd" clip-rule="evenodd" fill="#F2F9FA" d="M818.061,288.603c1.527,0,2.771-1.245,2.771-2.772
	c0-1.526-1.244-2.771-2.771-2.771c-1.526,0-2.771,1.245-2.771,2.771C815.289,287.358,816.534,288.603,818.061,288.603z"/>
<g>
	<path fill-rule="evenodd" clip-rule="evenodd" fill="#252D4E" d="M498.125,836.837c-8.107,0-14.739-6.633-14.739-14.739V609.139
		c0-8.106,6.632-14.739,14.739-14.739s14.74,6.633,14.74,14.739v212.959C512.865,830.204,506.232,836.837,498.125,836.837z"/>
	<path fill-rule="evenodd" clip-rule="evenodd" fill="#252D4E" d="M958.847,836.837c-8.107,0-14.74-6.633-14.74-14.739V609.139
		c0-8.106,6.633-14.739,14.74-14.739s14.74,6.633,14.74,14.739v212.959C973.587,830.204,966.954,836.837,958.847,836.837z"/>
	<path fill-rule="evenodd" clip-rule="evenodd" fill="#354F7F" d="M630.746,594.399c-81.05,0-147.361,6.633-147.361,14.739v34.875
		h460.724v-34.875C944.108,601.032,711.795,594.399,630.746,594.399z"/>
	<path fill-rule="evenodd" clip-rule="evenodd" fill="#354F7F" d="M958.847,594.399c-8.106,0-14.74,6.633-14.74,14.739v34.875h29.48
		v-34.875C973.587,601.032,966.954,594.399,958.847,594.399z"/>
	<path fill-rule="evenodd" clip-rule="evenodd" fill="#252D4E" d="M1017.651,618.396h-578.33c-8.535,0-15.519-6.983-15.519-15.52
		v-15.518h609.366v15.518C1033.169,611.413,1026.187,618.396,1017.651,618.396z"/>
	<path fill-rule="evenodd" clip-rule="evenodd" fill="#29365A" d="M505.184,602.877v-15.518h-81.381v15.518
		c0,8.536,6.983,15.52,15.519,15.52h81.38C512.167,618.396,505.184,611.413,505.184,602.877z"/>
	<path fill-rule="evenodd" clip-rule="evenodd" fill="#354F7F" d="M1046.041,599.699H410.932c-6.787,0-12.34-5.554-12.34-12.34
		c0-6.787,5.553-12.34,12.34-12.34h635.109c6.786,0,12.34,5.553,12.34,12.34C1058.381,594.146,1052.827,599.699,1046.041,599.699z"
		/>
	<path fill-rule="evenodd" clip-rule="evenodd" fill="#476594" d="M490.313,587.359L490.313,587.359
		c0-6.787,5.553-12.34,12.34-12.34h-91.722c-6.787,0-12.34,5.553-12.34,12.339v0.001c0,6.786,5.553,12.34,12.34,12.34h91.722
		C495.866,599.699,490.313,594.146,490.313,587.359z"/>
</g>
<g>
	<g>
		<path fill-rule="evenodd" clip-rule="evenodd" fill="#CBCCCE" d="M877.165,544.465c0,0,17.972-15.922,30.261-16.762l0.833,1.467
			l-31.82,18.853L877.165,544.465z"/>
		<path fill-rule="evenodd" clip-rule="evenodd" fill="#FBFDFF" d="M867.626,556.756c0,0,17.655-21.496,51.297-31.006l10.22-0.273
			l21.997,0.273c0,0,15.834,27.723,12.714,49.269l-25.337,0.042c-1.483,7.446-0.69,15.368,3.236,22.032
			c3.213,5.457,7.517,8.412,12.266,9.106c0.24-0.59,0.518-1.163,0.867-1.705c3.564-5.527,10.312-5.012,15.934-3.146
			c0.684,0.228,0.901,0.878,0.296,1.324c-4.33,3.198-9.446,5.287-14.443,5.533c-1.143,4.578-0.05,10.75,2.108,15.405
			c2.368,5.113,6.182,10.904,11.779,13.048c1.137,0.434,2.237,0.665,3.311,0.751v1.922c-1.147-0.074-2.309-0.255-3.491-0.649
			c-6.749-2.25-11.59-8.311-14.304-14.558c-1.945-4.482-3.868-10.806-2.667-16.039c-4.252-0.527-8.267-2.566-11.446-6.663
			c-5.689-7.344-7.743-17.394-5.463-26.359l-68.873-0.045V556.756L867.626,556.756z M967.872,602.413L967.872,602.413
			c-5.722-1.404-9.018,0.489-10.559,3.894C960.765,606.078,964.356,604.754,967.872,602.413z"/>
		<path fill-rule="evenodd" clip-rule="evenodd" fill="#E8C487" d="M957.674,540.205c0,0,5.446,3.344,7.95-4.305
			c2.5-7.648,0.145-15.035-9.609-20.609c-11.498-6.573-62.045-12.321-60.024,27.992l3.059,2.96l20.699-0.057l3.002-3.958
			c0,0,2.383-4.377-0.501-12.02c-2.381-6.307,21.685-12.295,28.306-5.758L957.674,540.205z"/>
		<path fill-rule="evenodd" clip-rule="evenodd" fill="#E8C487" d="M922.103,529.163c0,0,2.239-5.255,1.855-8.632l4.542-2.207
			c0,0,2.354,2.771,1.015,8.4C928.175,532.355,923.313,532.73,922.103,529.163z"/>
		<path fill-rule="evenodd" clip-rule="evenodd" fill="#E8C487" d="M943.835,529.163c0,0,2.237-5.255,1.855-8.632l4.543-2.207
			c0,0,2.355,2.771,1.014,8.4C949.907,532.355,945.046,532.73,943.835,529.163z"/>
	</g>
	<g>
		<path fill-rule="evenodd" clip-rule="evenodd" fill="none" stroke="#E8C487" stroke-width="3.0311" stroke-miterlimit="10" d="
			M878.795,491.581c7.604,5.804,15.205,11.608,22.81,17.413"/>
		<path fill-rule="evenodd" clip-rule="evenodd" fill="none" stroke="#E8C487" stroke-width="3.0311" stroke-miterlimit="10" d="
			M906.813,473.097c1.735,9.786,3.471,19.578,5.205,29.366"/>
		<path fill-rule="evenodd" clip-rule="evenodd" fill="none" stroke="#E8C487" stroke-width="3.0311" stroke-miterlimit="10" d="
			M896.397,521.816c-8.81,0.379-17.622,0.758-26.433,1.137"/>
	</g>
</g>
<g>
	<polygon fill-rule="evenodd" clip-rule="evenodd" fill="#475D84" points="746.718,503.862 746.718,486.073 640.737,486.073 
		640.737,503.862 633.784,503.862 633.784,521.651 640.737,521.651 640.737,539.441 633.784,539.441 633.784,557.23 640.737,557.23 
		640.737,575.02 746.718,575.02 746.718,557.23 739.765,557.23 739.765,539.441 746.718,539.441 746.718,521.651 739.765,521.651 
		739.765,503.862 	"/>
	<rect x="633.784" y="503.862" fill-rule="evenodd" clip-rule="evenodd" fill="#29365A" width="105.98" height="2.946"/>
	<rect x="640.737" y="521.651" fill-rule="evenodd" clip-rule="evenodd" fill="#29365A" width="105.98" height="2.946"/>
	<rect x="633.784" y="539.441" fill-rule="evenodd" clip-rule="evenodd" fill="#29365A" width="105.98" height="2.945"/>
	<rect x="640.737" y="557.23" fill-rule="evenodd" clip-rule="evenodd" fill="#29365A" width="105.98" height="2.945"/>
</g>
<g>
	<polygon fill-rule="evenodd" clip-rule="evenodd" fill="#475D84" points="860.276,442.755 860.276,424.966 754.296,424.966 
		754.296,442.755 747.343,442.755 747.343,460.544 754.296,460.544 754.296,478.334 747.343,478.334 747.343,496.123 
		754.296,496.123 754.296,513.912 860.276,513.912 860.276,496.123 853.324,496.123 853.324,478.334 860.276,478.334 
		860.276,460.544 853.324,460.544 853.324,442.755 	"/>
	<rect x="754.296" y="439.81" fill-rule="evenodd" clip-rule="evenodd" fill="#29365A" width="105.981" height="2.946"/>
	<rect x="754.296" y="475.388" fill-rule="evenodd" clip-rule="evenodd" fill="#29365A" width="105.98" height="2.946"/>
	<rect x="769.046" y="522.123" fill-rule="evenodd" clip-rule="evenodd" fill="#DBD9D6" width="105.981" height="2.945"/>
	<rect x="753.553" y="457.599" fill-rule="evenodd" clip-rule="evenodd" fill="#29365A" width="105.98" height="2.946"/>
</g>
<g>
	<polygon fill-rule="evenodd" clip-rule="evenodd" fill="#475D84" points="867.104,503.834 867.104,486.044 761.124,486.044 
		761.124,503.834 754.171,503.834 754.171,521.623 761.124,521.623 761.124,539.412 754.171,539.412 754.171,557.201 
		761.124,557.201 761.124,574.991 867.104,574.991 867.104,557.201 860.151,557.201 860.151,539.412 867.104,539.412 
		867.104,521.623 860.151,521.623 860.151,503.834 	"/>
	<rect x="754.171" y="503.834" fill-rule="evenodd" clip-rule="evenodd" fill="#29365A" width="105.98" height="2.945"/>
	<rect x="761.124" y="521.623" fill-rule="evenodd" clip-rule="evenodd" fill="#29365A" width="105.98" height="2.945"/>
	<rect x="754.171" y="539.412" fill-rule="evenodd" clip-rule="evenodd" fill="#29365A" width="105.98" height="2.946"/>
	<rect x="761.124" y="557.201" fill-rule="evenodd" clip-rule="evenodd" fill="#29365A" width="105.98" height="2.946"/>
</g>
<g>
	<g>
		<g>
			<path fill-rule="evenodd" clip-rule="evenodd" fill="#273B63" d="M837.377,808.789h-71.894c-1.158,0-2.286,0.092-3.404,0.22
				v40.04c1.118,0.133,2.246,0.221,3.404,0.221h71.894c13.465,0,24.382-9.063,24.382-20.24
				C861.759,817.851,850.842,808.789,837.377,808.789z"/>
			<path fill-rule="evenodd" clip-rule="evenodd" fill="#386098" d="M837.84,817.672h-75.761v22.319h75.761
				c6.702,0,12.127-4.993,12.127-11.159C849.967,822.67,844.542,817.672,837.84,817.672z"/>
		</g>
		<g>
			<path fill-rule="evenodd" clip-rule="evenodd" fill="#0D1429" d="M837.377,768.307h-71.894c-1.158,0-2.286,0.092-3.404,0.221
				v40.041c1.118,0.129,2.246,0.221,3.404,0.221h71.894c13.465,0,24.382-9.063,24.382-20.24
				C861.759,777.366,850.842,768.307,837.377,768.307z"/>
			<path fill-rule="evenodd" clip-rule="evenodd" fill="#386098" d="M837.84,777.192h-75.761v22.32h75.761
				c6.702,0,12.127-4.999,12.127-11.161C849.967,782.19,844.542,777.192,837.84,777.192z"/>
		</g>
		<g>
			<path fill-rule="evenodd" clip-rule="evenodd" fill="#0D1429" d="M789.796,727.827h71.892c1.156,0,2.288,0.09,3.401,0.218v40.042
				c-1.113,0.133-2.245,0.22-3.401,0.22h-71.892c-13.469,0-24.381-9.062-24.381-20.24
				C765.415,736.889,776.327,727.827,789.796,727.827z"/>
			<path fill-rule="evenodd" clip-rule="evenodd" fill="#386098" d="M789.329,736.713h75.76v22.316h-75.76
				c-6.697,0-12.129-4.996-12.129-11.159C777.2,741.708,782.632,736.713,789.329,736.713z"/>
		</g>
	</g>
	<g>
		<g>
			<path fill-rule="evenodd" clip-rule="evenodd" fill="#273B63" d="M936.11,803.6l-68.958-20.332
				c-1.112-0.328-2.219-0.561-3.328-0.752l-11.323,38.406c1.034,0.441,2.091,0.846,3.203,1.174l68.958,20.332
				c12.915,3.808,25.948-1.797,29.11-12.519C956.934,819.188,949.025,807.408,936.11,803.6z"/>
			<path fill-rule="evenodd" clip-rule="evenodd" fill="#386098" d="M934.042,812.251l-72.668-21.426l-6.313,21.409l72.668,21.426
				c6.429,1.896,13.045-1.362,14.788-7.274C944.26,820.475,940.471,814.146,934.042,812.251z"/>
		</g>
	</g>
</g>
<g>
	<polygon fill-rule="evenodd" clip-rule="evenodd" fill="#E8C487" points="753.144,778.425 753.144,760.636 647.162,760.636 
		647.162,778.425 640.21,778.425 640.21,796.214 647.162,796.214 647.162,814.004 640.21,814.004 640.21,831.792 647.162,831.792 
		647.162,849.582 753.144,849.582 753.144,831.792 746.19,831.792 746.19,814.004 753.144,814.004 753.144,796.214 746.19,796.214 
		746.19,778.425 	"/>
	<rect x="640.21" y="778.425" fill-rule="evenodd" clip-rule="evenodd" fill="#BDA179" width="105.98" height="2.946"/>
	<rect x="647.162" y="796.214" fill-rule="evenodd" clip-rule="evenodd" fill="#BDA179" width="105.981" height="2.946"/>
	<rect x="640.21" y="814.004" fill-rule="evenodd" clip-rule="evenodd" fill="#BDA179" width="105.98" height="2.945"/>
	<rect x="647.162" y="831.792" fill-rule="evenodd" clip-rule="evenodd" fill="#BDA179" width="105.981" height="2.946"/>
</g>
<g>
	<polygon fill-rule="evenodd" clip-rule="evenodd" fill="#E8C487" points="637.718,778.966 637.718,761.176 531.737,761.176 
		531.737,778.966 524.784,778.966 524.784,796.754 531.737,796.754 531.737,814.544 524.784,814.544 524.784,832.333 
		531.737,832.333 531.737,850.122 637.718,850.122 637.718,832.333 630.765,832.333 630.765,814.544 637.718,814.544 
		637.718,796.754 630.765,796.754 630.765,778.966 	"/>
	<rect x="524.784" y="778.966" fill-rule="evenodd" clip-rule="evenodd" fill="#BDA179" width="105.98" height="2.945"/>
	<rect x="531.737" y="796.754" fill-rule="evenodd" clip-rule="evenodd" fill="#BDA179" width="105.98" height="2.946"/>
	<rect x="524.784" y="814.544" fill-rule="evenodd" clip-rule="evenodd" fill="#BDA179" width="105.98" height="2.945"/>
	<rect x="531.737" y="832.333" fill-rule="evenodd" clip-rule="evenodd" fill="#BDA179" width="105.98" height="2.945"/>
</g>
<g>
	<polygon fill-rule="evenodd" clip-rule="evenodd" fill="#E8C487" points="660.718,696.088 660.718,678.299 554.737,678.299 
		554.737,696.088 547.784,696.088 547.784,713.877 554.737,713.877 554.737,731.667 547.784,731.667 547.784,749.455 
		554.737,749.455 554.737,767.245 660.718,767.245 660.718,749.455 653.765,749.455 653.765,731.667 660.718,731.667 
		660.718,713.877 653.765,713.877 653.765,696.088 	"/>
	<rect x="547.784" y="696.088" fill-rule="evenodd" clip-rule="evenodd" fill="#BDA179" width="105.98" height="2.946"/>
	<rect x="554.737" y="713.877" fill-rule="evenodd" clip-rule="evenodd" fill="#BDA179" width="105.98" height="2.945"/>
	<rect x="547.784" y="731.667" fill-rule="evenodd" clip-rule="evenodd" fill="#BDA179" width="105.98" height="2.945"/>
	<rect x="554.737" y="749.455" fill-rule="evenodd" clip-rule="evenodd" fill="#BDA179" width="105.98" height="2.946"/>
</g>
<g>
	<circle fill-rule="evenodd" clip-rule="evenodd" fill="#39557D" cx="978.105" cy="228.876" r="57.766"/>
	<g>
		<path fill-rule="evenodd" clip-rule="evenodd" fill="#E8C487" d="M1018.455,204.76c0-2.274-0.131-4.516-0.377-6.724
			c-9.247-11.926-23.713-19.603-39.972-19.603c-27.923,0-50.558,22.634-50.558,50.556c0,12.453,4.505,23.852,11.972,32.663
			c5.965,1.988,12.344,3.067,18.975,3.067C991.61,264.72,1018.455,237.875,1018.455,204.76z"/>
	</g>
	<g>
		<circle fill-rule="evenodd" clip-rule="evenodd" fill="#124473" cx="978.105" cy="184.341" r="4.05"/>
		<circle fill-rule="evenodd" clip-rule="evenodd" fill="#124473" cx="978.105" cy="273.638" r="4.05"/>
	</g>
	<g>
		<circle fill-rule="evenodd" clip-rule="evenodd" fill="#124473" cx="1022.754" cy="228.99" r="4.05"/>
		<circle fill-rule="evenodd" clip-rule="evenodd" fill="#124473" cx="933.456" cy="228.989" r="4.05"/>
	</g>
	<g>
		<circle fill-rule="evenodd" clip-rule="evenodd" fill="#D87667" cx="956.928" cy="191.506" r="2.514"/>
	</g>
	<g>
		<circle fill-rule="evenodd" clip-rule="evenodd" fill="#D87667" cx="940.726" cy="209.385" r="2.514"/>
	</g>
	<g>
		<circle fill-rule="evenodd" clip-rule="evenodd" fill="#D87667" cx="1015.031" cy="247.095" r="2.514"/>
	</g>
	<g>
		<circle fill-rule="evenodd" clip-rule="evenodd" fill="#D87667" cx="998.829" cy="264.973" r="2.514"/>
	</g>
	<g>
		<circle fill-rule="evenodd" clip-rule="evenodd" fill="#D87667" cx="941.844" cy="247.375" r="2.514"/>
	</g>
	<g>
		<circle fill-rule="evenodd" clip-rule="evenodd" fill="#D87667" cx="959.722" cy="263.576" r="2.514"/>
	</g>
	<g>
		<circle fill-rule="evenodd" clip-rule="evenodd" fill="#D87667" cx="997.432" cy="189.271" r="2.514"/>
	</g>
	<g>
		<circle fill-rule="evenodd" clip-rule="evenodd" fill="#D87667" cx="1015.311" cy="205.473" r="2.514"/>
	</g>
	<path fill-rule="evenodd" clip-rule="evenodd" fill="#124473" d="M998.087,258.904l-17.02-28.209
		c0.176-0.42,0.273-0.883,0.273-1.367v-0.242c0-1.972-1.599-3.57-3.571-3.57c-1.972,0-3.57,1.598-3.57,3.57v0.242
		c0,1.972,1.599,3.571,3.57,3.571c0.23,0,0.454-0.024,0.672-0.066l16.767,27.786c0.474,0.796,1.503,1.056,2.297,0.582
		C998.3,260.728,998.562,259.699,998.087,258.904z"/>
	<path fill-rule="evenodd" clip-rule="evenodd" fill="#D87667" d="M980.096,223.985c0.001-0.029,0.008-0.056,0.008-0.085v-21.405
		c0-1.08-0.875-1.955-1.956-1.955c-1.079,0-1.955,0.875-1.955,1.955V223.9c0,0.029,0.008,0.056,0.009,0.085
		c-2.045,0.785-3.501,2.762-3.501,5.083c0,3.009,2.44,5.447,5.447,5.447c3.01,0,5.447-2.438,5.447-5.447
		C983.595,226.747,982.142,224.769,980.096,223.985L980.096,223.985z M978.147,231.861L978.147,231.861
		c-1.542,0-2.792-1.25-2.792-2.793s1.25-2.793,2.792-2.793c1.543,0,2.795,1.25,2.795,2.793S979.69,231.861,978.147,231.861z"/>
</g>
<polygon fill-rule="evenodd" clip-rule="evenodd" fill="#FFFFFF" points="975.044,879.706 963.698,866.645 968.673,862.266 
	962.924,854.062 977.388,849.917 999.094,862.157 "/>
<path fill-rule="evenodd" clip-rule="evenodd" fill="#F2F9FA" d="M822.398,250.192c3.103,0,5.634-2.531,5.634-5.634
	c0-3.103-2.531-5.634-5.634-5.634c-3.104,0-5.635,2.531-5.635,5.634C816.764,247.662,819.295,250.192,822.398,250.192z"/>
<path fill-rule="evenodd" clip-rule="evenodd" fill="#F2F9FA" d="M652.744,228.986c6.249,0,11.346-5.097,11.346-11.346
	c0-6.249-5.097-11.346-11.346-11.346s-11.347,5.097-11.347,11.346C641.397,223.889,646.495,228.986,652.744,228.986z"/>
<path fill-rule="evenodd" clip-rule="evenodd" fill="#F2F9FA" d="M767.308,211.435c3.479,0,6.315-2.837,6.315-6.316
	s-2.837-6.316-6.315-6.316s-6.316,2.838-6.316,6.316S763.829,211.435,767.308,211.435z"/>
<path fill-rule="evenodd" clip-rule="evenodd" fill="#3A5681" d="M882.115,289.607h29.315c3.129,0,5.688,2.56,5.688,5.688
	s-2.559,5.688-5.688,5.688h-29.315c-3.128,0-5.688-2.559-5.688-5.688S878.987,289.607,882.115,289.607z"/>
<path fill-rule="evenodd" clip-rule="evenodd" fill="#3A5681" d="M864.115,305.857h48.315c3.129,0,5.688,2.56,5.688,5.688
	c0,3.128-2.559,5.688-5.688,5.688h-48.315c-3.128,0-5.688-2.56-5.688-5.688C858.428,308.417,860.987,305.857,864.115,305.857z"/>
<path fill-rule="evenodd" clip-rule="evenodd" fill="#3A5681" d="M954.112,353.544h12.816c3.128,0,5.688,2.56,5.688,5.688
	s-2.56,5.688-5.688,5.688h-12.816c-3.128,0-5.688-2.559-5.688-5.688S950.984,353.544,954.112,353.544z"/>
<path fill-rule="evenodd" clip-rule="evenodd" fill="#3A5681" d="M920.612,361.856h12.816c3.128,0,5.688,2.56,5.688,5.688
	c0,3.128-2.56,5.688-5.688,5.688h-12.816c-3.128,0-5.688-2.56-5.688-5.688S917.484,361.856,920.612,361.856z"/>
<path fill-rule="evenodd" clip-rule="evenodd" fill="#3A5681" d="M609.112,405.545h12.816c3.128,0,5.688,2.56,5.688,5.688
	c0,3.128-2.56,5.688-5.688,5.688h-12.816c-3.128,0-5.688-2.559-5.688-5.688S605.984,405.545,609.112,405.545z"/>
<path fill-rule="evenodd" clip-rule="evenodd" fill="#3A5681" d="M843.454,344.856h12.815c3.128,0,5.688,2.56,5.688,5.688
	s-2.56,5.688-5.688,5.688h-12.815c-3.129,0-5.688-2.559-5.688-5.688S840.325,344.856,843.454,344.856z"/>
<path fill-rule="evenodd" clip-rule="evenodd" fill="#3A5681" d="M877.203,344.856h44.315c3.129,0,5.688,2.56,5.688,5.688
	s-2.56,5.688-5.688,5.688h-44.315c-3.128,0-5.688-2.559-5.688-5.688S874.075,344.856,877.203,344.856z"/>
<path fill-rule="evenodd" clip-rule="evenodd" fill="#3A5681" d="M863.888,385.48h12.815c3.128,0,5.688,2.56,5.688,5.688
	c0,3.128-2.56,5.688-5.688,5.688h-12.815c-3.129,0-5.688-2.559-5.688-5.688S860.759,385.48,863.888,385.48z"/>
<path fill-rule="evenodd" clip-rule="evenodd" fill="#3A5681" d="M740.888,157.48h12.815c3.128,0,5.688,2.56,5.688,5.688
	c0,3.128-2.56,5.688-5.688,5.688h-12.815c-3.129,0-5.688-2.56-5.688-5.688C735.199,160.04,737.759,157.48,740.888,157.48z"/>
<path fill-rule="evenodd" clip-rule="evenodd" fill="#3A5681" d="M770.771,145.168h44.316c3.128,0,5.688,2.56,5.688,5.688
	s-2.56,5.688-5.688,5.688h-44.316c-3.128,0-5.688-2.559-5.688-5.688S767.643,145.168,770.771,145.168z"/>
<g>
	<path fill-rule="evenodd" clip-rule="evenodd" fill="#0F142B" d="M450.371,396.446h137.606c16.813,0,30.444,13.63,30.444,30.444
		v84.774c0,16.813-13.631,30.444-30.444,30.444H450.371c-16.814,0-30.444-13.631-30.444-30.444v-84.774
		C419.927,410.077,433.557,396.446,450.371,396.446z"/>
	<path fill-rule="evenodd" clip-rule="evenodd" fill="#E8C487" d="M607.918,511.665v-84.774c0-16.814-13.631-30.444-30.445-30.444
		h10.505c16.813,0,30.444,13.63,30.444,30.444v84.774c0,16.813-13.631,30.444-30.444,30.444h-10.505
		C594.287,542.109,607.918,528.479,607.918,511.665z"/>
	<path fill-rule="evenodd" clip-rule="evenodd" fill="#0F142B" d="M455.349,511.533c2.674-8.224,10.339-13.791,18.984-13.791h21.057
		c9.785,0,16.726,9.551,13.699,18.857l-19.042,58.587h-55.386L455.349,511.533z"/>
	<path fill-rule="evenodd" clip-rule="evenodd" fill="#E8C487" d="M509.089,516.6c3.026-9.307-3.914-18.857-13.699-18.857h9.002
		c9.788,0,16.729,9.551,13.703,18.857l-15.598,47.986h45.797c5.854,0,10.6,4.746,10.6,10.601h-59.842h-2.678h-6.327L509.089,516.6z"
		/>
</g>
</svg>
